name Walk3.mot
datacolumns 19
datarows 22
range 2.29000000 2.39500000
endheader

                time	   L_ground_force_vx	   L_ground_force_vy	   L_ground_force_vz	   L_ground_force_px	   L_ground_force_py	   L_ground_force_pz	   R_ground_force_vx	   R_ground_force_vy	   R_ground_force_vz	   R_ground_force_px	   R_ground_force_py	   R_ground_force_pz	   L_ground_torque_x	   L_ground_torque_y	   L_ground_torque_z	   R_ground_torque_x	   R_ground_torque_y	   R_ground_torque_z	
          2.29000000	        -11.07811318	        479.88953873	         42.99523379	          0.44354478	          0.00000000	          0.18516108	         -0.14620471	        -21.89611516	         -0.11060364	         -0.14366759	          0.00000000	          0.21576352	          0.00000000	         -1.19970355	          0.00000000	          0.00000000	          0.00172974	          0.00000000	
          2.29500000	         -8.27657285	        480.60462033	         44.18026259	          0.44519608	          0.00000000	          0.18475178	         -0.15144978	        -21.82927641	         -0.10695153	         -0.14370835	          0.00000000	          0.21599177	          0.00000000	         -1.28218047	          0.00000000	          0.00000000	          0.00205803	          0.00000000	
          2.30000000	         -5.52316940	        483.40867998	         45.09584598	          0.44681659	          0.00000000	          0.18442010	         -0.15424713	        -21.73409322	         -0.10235339	         -0.14376084	          0.00000000	          0.21627886	          0.00000000	         -1.37266243	          0.00000000	          0.00000000	          0.00246448	          0.00000000	
          2.30500000	         -2.83760162	        488.21644198	         45.67600301	          0.44841575	          0.00000000	          0.18417219	         -0.15515168	        -21.61426608	         -0.09693771	         -0.14381857	          0.00000000	          0.21661549	          0.00000000	         -1.47368007	          0.00000000	          0.00000000	          0.00291492	          0.00000000	
          2.31000000	         -0.23896884	        494.90368671	         45.88620449	          0.45000615	          0.00000000	          0.18400975	         -0.15466651	        -21.47642909	         -0.09097344	         -0.14387712	          0.00000000	          0.21698156	          0.00000000	         -1.58708032	          0.00000000	          0.00000000	          0.00336342	          0.00000000	
          2.31500000	          2.25093840	        503.30228067	         45.72194741	          0.45160531	          0.00000000	          0.18392941	         -0.15323315	        -21.33130149	         -0.08492211	         -0.14393353	          0.00000000	          0.21734302	          0.00000000	         -1.71393694	          0.00000000	          0.00000000	          0.00374801	          0.00000000	
          2.32000000	          4.60576190	        513.20589892	         45.20498383	          0.45323533	          0.00000000	          0.18392339	         -0.15123545	        -21.19499260	         -0.07949428	         -0.14398574	          0.00000000	          0.21764833	          0.00000000	         -1.85410645	          0.00000000	          0.00000000	          0.00398653	          0.00000000	
          2.32500000	          6.79696968	        524.37775313	         44.37806360	          0.45492108	          0.00000000	          0.18398160	         -0.14901737	        -21.09112556	         -0.07574043	         -0.14403202	          0.00000000	          0.21782357	          0.00000000	         -2.00552986	          0.00000000	          0.00000000	          0.00397055	          0.00000000	
          2.33000000	          8.79934508	        536.56190176	         43.30053798	          0.45668859	          0.00000000	          0.18409246	         -0.14683993	        -21.04342967	         -0.07470863	         -0.14407199	          0.00000000	          0.21779595	          0.00000000	         -2.16463230	          0.00000000	          0.00000000	          0.00359102	          0.00000000	
          2.33500000	         10.59574961	        549.49782963	         42.04423582	          0.45856289	          0.00000000	          0.18424313	         -0.14470625	        -21.04187148	         -0.07591659	         -0.14410921	          0.00000000	          0.21759545	          0.00000000	         -2.32684454	          0.00000000	          0.00000000	          0.00285214	          0.00000000	
          2.34000000	         12.17955290	        562.93148687	         40.68881540	          0.46056533	          0.00000000	          0.18442132	         -0.14249219	        -21.05686645	         -0.07798686	         -0.14414748	          0.00000000	          0.21730834	          0.00000000	         -2.48731739	          0.00000000	          0.00000000	          0.00183191	          0.00000000	
          2.34500000	         13.55430866	        576.62366682	         39.31662788	          0.46271151	          0.00000000	          0.18461396	         -0.14011003	        -21.06732588	         -0.07988843	         -0.14418904	          0.00000000	          0.21700061	          0.00000000	         -2.64124420	          0.00000000	          0.00000000	          0.00059726	          0.00000000	
          2.35000000	         14.73078135	        590.35946902	         38.00762747	          0.46501155	          0.00000000	          0.18480731	         -0.13753298	        -21.06196354	         -0.08098063	         -0.14423444	          0.00000000	          0.21671700	          0.00000000	         -2.78341186	          0.00000000	          0.00000000	         -0.00079102	          0.00000000	
          2.35500000	         15.72548676	        603.95158000	         36.83391706	          0.46746913	          0.00000000	          0.18498924	         -0.13481706	        -21.03887334	         -0.08098067	         -0.14428208	          0.00000000	          0.21648462	          0.00000000	         -2.90857436	          0.00000000	          0.00000000	         -0.00226523	          0.00000000	
          2.36000000	         16.56157818	        617.23773842	         35.85506890	          0.47008090	          0.00000000	          0.18514986	         -0.13213216	        -21.00601184	         -0.07996418	         -0.14432770	          0.00000000	          0.21631539	          0.00000000	         -3.01196021	          0.00000000	          0.00000000	         -0.00373550	          0.00000000	
          2.36500000	         17.26861153	        630.08482463	         35.11477481	          0.47283964	          0.00000000	          0.18528189	         -0.12970569	        -20.97586521	         -0.07823534	         -0.14436558	          0.00000000	          0.21621020	          0.00000000	         -3.08932870	          0.00000000	          0.00000000	         -0.00510329	          0.00000000	
          2.37000000	         17.88084899	        642.39072961	         34.63780598	          0.47573559	          0.00000000	          0.18538054	         -0.12759334	        -20.94862855	         -0.07593538	         -0.14439354	          0.00000000	          0.21616630	          0.00000000	         -3.13776531	          0.00000000	          0.00000000	         -0.00633271	          0.00000000	
          2.37500000	         18.43489732	        654.07860776	         34.42779940	          0.47875826	          0.00000000	          0.18544272	         -0.12585120	        -20.92245317	         -0.07329278	         -0.14440942	          0.00000000	          0.21617496	          0.00000000	         -3.15645111	          0.00000000	          0.00000000	         -0.00738755	          0.00000000	
          2.38000000	         18.96673476	        665.09585040	         34.46729348	          0.48189539	          0.00000000	          0.18546761	         -0.12474489	        -20.90624464	         -0.07094258	         -0.14440686	          0.00000000	          0.21621754	          0.00000000	         -3.14666191	          0.00000000	          0.00000000	         -0.00815663	          0.00000000	
          2.38500000	         19.50975836	        675.41550159	         34.72084548	          0.48513172	          0.00000000	          0.18545790	         -0.12456784	        -20.91115699	         -0.06961101	         -0.14438008	          0.00000000	          0.21627655	          0.00000000	         -3.11161399	          0.00000000	          0.00000000	         -0.00849309	          0.00000000	
          2.39000000	         20.09477038	        685.03694486	         35.14115801	          0.48844934	          0.00000000	          0.18542016	         -0.12531916	        -20.93588945	         -0.06957047	         -0.14433240	          0.00000000	          0.21635419	          0.00000000	         -3.05559347	          0.00000000	          0.00000000	         -0.00828898	          0.00000000	
          2.39500000	         20.75288990	        693.98346178	         35.67571815	          0.49182748	          0.00000000	          0.18536472	         -0.12682319	        -20.97288161	         -0.07074346	         -0.14427005	          0.00000000	          0.21646098	          0.00000000	         -2.98368174	          0.00000000	          0.00000000	         -0.00751079	          0.00000000	
